<svg width="14" height="13" viewBox="0 0 14 13" fill="none" xmlns="http://www.w3.org/2000/svg">
<path d="M5.87888 11.7195C6.06635 11.532 6.17166 11.2777 6.17166 11.0125C6.17166 10.7474 6.06635 10.4931 5.87888 10.3055L2.58688 7.01254L12.9999 7.00554C13.2651 7.00554 13.5194 6.90019 13.707 6.71265C13.8945 6.52511 13.9999 6.27076 13.9999 6.00554C13.9999 5.74033 13.8945 5.48597 13.707 5.29844C13.5194 5.1109 13.2651 5.00554 12.9999 5.00554L2.58588 5.01254L5.87888 1.71954C5.97439 1.6273 6.05057 1.51695 6.10298 1.39495C6.15539 1.27294 6.18297 1.14172 6.18413 1.00894C6.18528 0.876164 6.15998 0.744486 6.1097 0.62159C6.05942 0.498693 5.98517 0.387041 5.89127 0.293148C5.79738 0.199255 5.68573 0.125001 5.56283 0.0747204C5.43994 0.0244398 5.30826 -0.000862122 5.17548 0.000291824C5.0427 0.00144577 4.91148 0.0290327 4.78947 0.0814419C4.66747 0.133851 4.55713 0.210032 4.46488 0.305542L0.878878 3.89054C0.600248 4.16913 0.379224 4.49987 0.228428 4.86388C0.077632 5.22789 1.90735e-05 5.61803 1.90735e-05 6.01204C1.90735e-05 6.40605 0.077632 6.7962 0.228428 7.16021C0.379224 7.52422 0.600248 7.85496 0.878878 8.13354L4.46488 11.7195C4.65241 11.907 4.90671 12.0123 5.17188 12.0123C5.43704 12.0123 5.69135 11.907 5.87888 11.7195Z" fill="#31352B"/>
</svg>
