<?xml version="1.0" encoding="utf-8"?><svg viewBox="0 0 44 44" xmlns="http://www.w3.org/2000/svg" xmlns:xlink="http://www.w3.org/1999/xlink"><style>:root>svg{display:none}:root>svg:target{display:block}</style><svg viewBox="0 0 30 22" id="burger" xmlns="http://www.w3.org/2000/svg"><path stroke-width="2" d="M0 1h30M0 11h30M0 21h30"/></svg><svg viewBox="0 0 18 18" id="close-btn" xmlns="http://www.w3.org/2000/svg"><g clip-path="url(#bclip0_239_502)"><path d="M10.055 9.005l7.716-7.716A.75.75 0 1016.71.23L8.995 7.945 1.28.23A.75.75 0 00.22 1.29l7.716 7.716L.22 16.721a.75.75 0 001.06 1.06l7.716-7.716 7.716 7.716a.75.75 0 001.06-1.06l-7.716-7.716z"/></g><defs><clipPath id="bclip0_239_502"><path d="M0 0h18v18H0z"/></clipPath></defs></svg><svg viewBox="0 0 24 24" id="icon-arrow" xmlns="http://www.w3.org/2000/svg"><path d="M13.121 6.293a1 1 0 000 1.414L16.413 11 6 11.007a1 1 0 000 2L16.414 13l-3.293 3.293a1 1 0 101.414 1.414l3.586-3.585a3 3 0 000-4.243l-3.586-3.586a1 1 0 00-1.414 0z"/></svg><svg viewBox="0 0 11 19" id="icon-arrow_left" xmlns="http://www.w3.org/2000/svg"><path d="M8.197 18.05L.45 10.302a1.548 1.548 0 010-2.184L8.197.373a1.548 1.548 0 012.184 2.184L3.735 9.203l6.646 6.662c.601.604.601 1.58 0 2.184a1.548 1.548 0 01-2.184 0z"/></svg><svg viewBox="0 0 11 19" id="icon-arrow_right" xmlns="http://www.w3.org/2000/svg"><path d="M2.803 18.05l7.746-7.747a1.548 1.548 0 000-2.184L2.803.373A1.548 1.548 0 00.62 2.557l6.646 6.646-6.646 6.662a1.548 1.548 0 000 2.184c.604.601 1.58.601 2.184 0z"/></svg><svg viewBox="0 0 44 44" id="icon-asia" xmlns="http://www.w3.org/2000/svg"><g clip-path="url(#fclip0_669_808)"><path d="M15.132 13.567h2.124c.552 0 1 .448 1 1v1.465a.645.645 0 001.29 0v-1.465a2.292 2.292 0 00-2.29-2.29h-2.124a.984.984 0 010-1.965h4.711a2.275 2.275 0 002.272-2.273 2.275 2.275 0 00-2.272-2.272h-3.77a.645.645 0 000 1.29h3.77a.984.984 0 010 1.966h-4.711a2.275 2.275 0 00-2.273 2.272 2.275 2.275 0 002.273 2.272zM7.389 17.892h2.108c.544 0 .987.443.987.988v1.454a.644.644 0 101.29 0V18.88a2.279 2.279 0 00-2.277-2.277H7.39a.972.972 0 010-1.94h2.465a.645.645 0 000-1.29H7.389a2.262 2.262 0 00-2.26 2.26 2.262 2.262 0 002.26 2.26zM25.652 26.813a.645.645 0 100-1.29.645.645 0 000 1.29zM28.832 28.273a.645.645 0 100-1.289.645.645 0 000 1.29zM30.723 30.508a.645.645 0 100-1.29.645.645 0 000 1.29zM28.059 25.266a.644.644 0 100-1.29.644.644 0 000 1.29zM25.91 30.938a.645.645 0 100-1.29.645.645 0 000 1.29z"/><path d="M42.911 22.811h-1.828l.904-1.868A2.507 2.507 0 0044 18.49a2.506 2.506 0 00-2.102-2.47c-1.315-2.37-3.885-4.149-7.001-4.86v-.048a.645.645 0 00-1.264-.176 13.86 13.86 0 00-1.197-.1.644.644 0 00-1.163 0c-.405.017-.804.05-1.197.1a.644.644 0 00-1.264.176v.049c-3.116.71-5.686 2.49-7.001 4.859a2.506 2.506 0 00-2.093 2.685c-2.975.277-5.649 1.52-7.655 3.386h-4.05a.909.909 0 00-.69.318H5.43a2.118 2.118 0 00-1.957-1.337 2.106 2.106 0 00-2.082 2.397 2.107 2.107 0 00-1.066 3.104 2.106 2.106 0 001.778 3.229c.878 0 1.648-.554 1.958-1.337h1.704a.91.91 0 00.586.623l2.02.686a10.898 10.898 0 00-.002 1.223c-.316.076-.61.207-.873.383a2.7 2.7 0 00-1.51-.46 2.721 2.721 0 00-2.717 2.719l.002.068h-.754a1.08 1.08 0 00-.985.624c-.181.385-.126.828.144 1.156l1.934 2.35c.207.252.514.397.84.397h27.26a.644.644 0 100-1.29H4.545l-1.604-1.948h39.544l-1.603 1.949h-6.164a.645.645 0 100 1.289h6.258c.327 0 .633-.145.84-.397l1.934-2.35a1.08 1.08 0 00.144-1.156 1.079 1.079 0 00-.984-.624h-.638a5.411 5.411 0 00.64-3.671.645.645 0 00-.52-.52 5.409 5.409 0 00-5.008 1.731c-.37-.2-.79-.316-1.237-.325v-1.226h.688c1.09 0 1.977-.887 1.977-1.977v-.865h4.1c.6 0 1.088-.488 1.088-1.088V23.9c0-.6-.488-1.089-1.089-1.089zM6.291 33.706H4.56l-.002-.068a1.43 1.43 0 012.053-1.284c-.206.383-.323.82-.323 1.284 0 .023.002.045.003.068zm32.225-1.784a4.116 4.116 0 013.184-1.195 4.118 4.118 0 01-1.005 2.98h-1.063l.881-.881a.644.644 0 10-.911-.912l-.914.913a2.712 2.712 0 00-.348-.717c.057-.064.115-.127.176-.188zm-13.013-17.98a10.716 10.716 0 013.309-1.452v.663a.645.645 0 101.29 0v-.918c.364-.052.735-.087 1.108-.106v1.024a.645.645 0 101.289 0V12.13c.373.02.743.054 1.109.106v.918a.645.645 0 101.289 0v-.663c1.206.309 2.333.799 3.309 1.452.95.637 1.724 1.406 2.288 2.256a2.526 2.526 0 00-.604.375 2.506 2.506 0 00-1.607-.587c-.595 0-1.163.215-1.607.587a2.506 2.506 0 00-1.607-.587c-.595 0-1.163.215-1.607.587a2.506 2.506 0 00-1.608-.587c-.594 0-1.162.215-1.607.587a2.506 2.506 0 00-1.607-.587c-.594 0-1.162.215-1.607.587a2.506 2.506 0 00-1.607-.587c-.594 0-1.162.215-1.607.587a2.524 2.524 0 00-.605-.375c.565-.85 1.339-1.619 2.29-2.256zm-3.291 3.333c.43 0 .832.233 1.05.607a.645.645 0 001.114 0c.217-.374.62-.607 1.05-.607.43 0 .832.233 1.05.607a.644.644 0 001.115 0c.217-.374.619-.607 1.05-.607.43 0 .832.233 1.049.607a.644.644 0 001.115 0c.217-.374.62-.607 1.05-.607.43 0 .832.233 1.049.607a.644.644 0 001.115 0c.217-.374.62-.607 1.05-.607.43 0 .832.233 1.05.607a.645.645 0 001.114 0c.217-.374.62-.607 1.05-.607.43 0 .832.233 1.05.607a.644.644 0 001.114 0c.218-.374.62-.607 1.05-.607.67 0 1.214.545 1.214 1.214 0 .67-.545 1.214-1.214 1.214-.43 0-.832-.233-1.05-.607a.645.645 0 00-1.114 0c-.218.374-.62.607-1.05.607-.43 0-.833-.233-1.05-.607a.645.645 0 00-1.115 0c-.217.374-.62.607-1.05.607-.43 0-.832-.233-1.049-.607a.644.644 0 00-1.115 0c-.217.374-.62.607-1.05.607-.43 0-.832-.233-1.05-.607a.645.645 0 00-1.114 0c-.218.374-.62.607-1.05.607-.43 0-.832-.233-1.05-.607a.645.645 0 00-1.114 0 1.22 1.22 0 01-.54.492 13.364 13.364 0 00-4.927-.942 1.215 1.215 0 011.202-1.37zM8.392 23.38h2.472c-.255.316-.493.644-.712.983h-1.76v-.983zm-2.66 3.796H3.558a.645.645 0 00-.643.59.818.818 0 01-.81.747.815.815 0 01-.519-1.443.645.645 0 000-.993.813.813 0 111.33-.697.645.645 0 00.642.59h2.176v1.206zm.221-2.494H4.061a2.128 2.128 0 00-1.36-1.248.814.814 0 111.583-.327.645.645 0 00.642.591h2.177v.665h-.46a.91.91 0 00-.69.319zm4.48 9.025H7.58a1.43 1.43 0 011.427-1.497 1.43 1.43 0 011.428 1.429l-.002.068zm19.879 0h-2.244l-.002-.068a1.43 1.43 0 012.439-1.01 2.704 2.704 0 00-.196 1.01c0 .023.002.045.003.068zm-.817-2.786a2.721 2.721 0 00-2.719 2.718c0 .023.002.045.003.068H11.722l.002-.068c0-1.273-.88-2.344-2.063-2.638a9.739 9.739 0 01-.016-.794l6.592 2.238a4.113 4.113 0 003.753-.556 4.106 4.106 0 001.732-3.375c0-.484-.083-.96-.247-1.412a.645.645 0 10-1.212.438c.113.312.17.64.17.974a2.83 2.83 0 01-1.195 2.327 2.83 2.83 0 01-2.587.383l-9.629-3.27v-2.302h10.55c.323 0 .641.055.946.162a.644.644 0 10.427-1.217 4.144 4.144 0 00-1.373-.234h-5.845c2.056-2.676 5.438-4.427 9.256-4.427 6.253 0 11.34 4.695 11.34 10.467 0 .206-.006.412-.02.616-.389.108-.743.3-1.042.557a2.705 2.705 0 00-1.766-.655zm4.959 2.786h-2.853a1.43 1.43 0 011.427-1.497c.787 0 1.428.641 1.428 1.429 0 .023 0 .046-.002.068zm.404-2.486c-.102.053-.202.11-.297.175a2.704 2.704 0 00-.964-.413 10.977 10.977 0 00-.01-1.287h1.271v1.525zm2.665 2.418c0 .023-.002.046-.003.068h-1.777l.002-.068a2.7 2.7 0 00-.313-1.266 1.43 1.43 0 012.09 1.265zm0-5.92c0 .38-.309.688-.688.688h-3.407c-.098-.53-.232-1.05-.404-1.553h4.499v.865zm5.188-2.154H32.493a11.526 11.526 0 00-.853-1.464h2.735a.645.645 0 000-1.29h-3.756a12.417 12.417 0 00-2.077-1.82l.098.002c.595 0 1.162-.215 1.607-.588a2.506 2.506 0 001.607.588c.595 0 1.163-.215 1.608-.588a2.506 2.506 0 001.607.588c.594 0 1.162-.215 1.607-.588a2.506 2.506 0 001.607.588c.594 0 1.162-.215 1.607-.588.215.18.459.323.72.423l-.96 1.984h-2.267a.644.644 0 100 1.289h5.328v1.464z"/></g><defs><clipPath id="fclip0_669_808"><path d="M0 0h44v44H0z"/></clipPath></defs></svg><svg viewBox="0 0 24 20" id="icon-blockquote1" xmlns="http://www.w3.org/2000/svg"><path d="M5.217 9.565c1.276.116 2.32.609 3.13 1.479.812.869 1.218 1.97 1.218 3.304 0 1.45-.435 2.637-1.304 3.565-.87.87-1.971 1.304-3.304 1.304-1.508 0-2.725-.55-3.653-1.652C.434 16.464 0 14.754 0 12.435 0 7.97 1.478 4.115 4.435.87c.58-.58 1.246-.87 2-.87.637 0 1.188.232 1.652.696.464.405.696.898.696 1.478 0 .638-.232 1.188-.696 1.652-1.507 1.565-2.464 3.478-2.87 5.74zm14.435 0c1.275.116 2.319.609 3.13 1.479.812.869 1.218 1.97 1.218 3.304 0 1.45-.435 2.637-1.304 3.565-.87.87-1.971 1.304-3.305 1.304-1.507 0-2.724-.55-3.652-1.652-.87-1.101-1.304-2.811-1.304-5.13 0-4.464 1.478-8.32 4.435-11.565.58-.58 1.246-.87 2-.87.637 0 1.188.232 1.652.696.463.405.695.898.695 1.478 0 .638-.232 1.188-.695 1.652-1.507 1.565-2.464 3.478-2.87 5.74z"/></svg><svg viewBox="0 0 24 20" id="icon-blockquote2" xmlns="http://www.w3.org/2000/svg"><path d="M18.783 9.565c-1.276.116-2.32.609-3.13 1.479-.812.869-1.218 1.97-1.218 3.304 0 1.45.435 2.637 1.304 3.565.87.87 1.971 1.304 3.305 1.304 1.507 0 2.724-.55 3.652-1.652.87-1.101 1.304-2.811 1.304-5.13C24 7.97 22.522 4.115 19.565.87c-.58-.58-1.246-.87-2-.87-.638 0-1.188.232-1.652.696-.464.405-.696.898-.696 1.478 0 .638.232 1.188.696 1.652 1.507 1.565 2.464 3.478 2.87 5.74zm-14.435 0c-1.276.116-2.319.609-3.13 1.479C.405 11.912 0 13.014 0 14.348c0 1.45.435 2.637 1.304 3.565.87.87 1.971 1.304 3.305 1.304 1.507 0 2.724-.55 3.652-1.652.87-1.101 1.304-2.811 1.304-5.13C9.565 7.97 8.087 4.115 5.13.87 4.55.29 3.884 0 3.13 0c-.637 0-1.188.232-1.652.696-.464.405-.695.898-.695 1.478 0 .638.231 1.188.695 1.652 1.508 1.565 2.464 3.478 2.87 5.74z"/></svg><svg viewBox="0 0 44 39" id="icon-burger" xmlns="http://www.w3.org/2000/svg"><path d="M44 19.336c0-1.69-1.09-3.128-2.602-3.653-.232-5.241-2.189-9.263-5.825-11.966C32.254 1.251 27.688 0 22 0 16.312 0 11.746 1.25 8.427 3.717 4.791 6.42 2.834 10.442 2.602 15.683A3.873 3.873 0 000 19.336c0 .99.374 1.893.988 2.578A3.851 3.851 0 000 24.492c0 1.7 1.103 3.146 2.63 3.663.553 5.89 5.56 10.517 11.636 10.517h15.468c6.076 0 11.084-4.627 11.636-10.517A3.873 3.873 0 0044 24.492c0-.99-.374-1.893-.988-2.578A3.852 3.852 0 0044 19.336zM22 2.578c7.393 0 16.151 2.28 16.803 12.89H5.197C5.849 4.859 14.607 2.579 22 2.579zM3.867 18.047h36.266c.71 0 1.289.578 1.289 1.289 0 .71-.578 1.289-1.29 1.289H3.868a1.29 1.29 0 01-1.289-1.29c0-.71.578-1.288 1.29-1.288zm25.867 18.047H14.266c-4.581 0-8.383-3.367-9.016-7.735h1.195c.862 0 1.134.293 1.677.878.667.718 1.58 1.7 3.566 1.7 2 0 2.889-.993 3.538-1.718.513-.572.77-.86 1.618-.86.848 0 1.105.288 1.617.86.65.725 1.54 1.718 3.539 1.718 2 0 2.89-.993 3.538-1.718.513-.572.77-.86 1.618-.86.848 0 1.105.288 1.618.86.65.725 1.539 1.718 3.538 1.718 2 0 2.89-.993 3.539-1.718.513-.572.77-.86 1.618-.86h1.281c-.633 4.367-4.435 7.735-9.016 7.735zM40.133 25.78h-2.664c-2 0-2.89.993-3.539 1.719-.512.572-.77.86-1.617.86-.848 0-1.106-.288-1.618-.86-.65-.726-1.539-1.719-3.539-1.719s-2.889.993-3.538 1.719c-.513.572-.77.86-1.618.86-.848 0-1.105-.288-1.618-.86-.65-.726-1.538-1.719-3.538-1.719-2 0-2.89.993-3.539 1.719-.512.572-.77.86-1.617.86-.862 0-1.135-.294-1.677-.878-.667-.718-1.58-1.7-3.566-1.7H3.867a1.29 1.29 0 01-1.289-1.29c0-.71.578-1.289 1.29-1.289h36.265a1.29 1.29 0 010 2.578z"/><path d="M14.266 12.89a1.289 1.289 0 100-2.577 1.289 1.289 0 000 2.578zM29.734 12.89a1.289 1.289 0 100-2.577 1.289 1.289 0 000 2.578zM24.578 10.313a1.289 1.289 0 100-2.579 1.289 1.289 0 000 2.579zM19.422 7.734a1.289 1.289 0 100-2.578 1.289 1.289 0 000 2.578z"/></svg><svg viewBox="0 0 24 24" id="icon-calling" xmlns="http://www.w3.org/2000/svg"><g stroke-width="1.5" stroke-linecap="round" stroke-linejoin="round"><path d="M14.353 2.5a7.97 7.97 0 017.04 7.032M14.353 6.043a4.426 4.426 0 013.5 3.5"/><path clip-rule="evenodd" d="M11.031 12.472c3.99 3.988 4.894-.625 7.434 1.913 2.449 2.448 3.857 2.938.754 6.04-.389.312-2.858 4.07-11.535-4.605C-.993 7.144 2.762 4.672 3.074 4.284c3.11-3.11 3.593-1.695 6.041.753 2.54 2.54-2.072 3.447 1.916 7.435z"/></g></svg><svg viewBox="0 0 21 20" id="icon-cart" xmlns="http://www.w3.org/2000/svg"><path d="M1 1.176l2.08.356.963 11.34c.077.926.86 1.636 1.8 1.633h10.909a1.794 1.794 0 001.785-1.528l.949-6.482a1.328 1.328 0 00-1.135-1.501c-.064-.009-14.937-.014-14.937-.014M12.375 8.633h2.773" stroke-width="1.5" stroke-linecap="round" stroke-linejoin="round"/><path clip-rule="evenodd" d="M5.404 17.932a.54.54 0 01.544.538.541.541 0 01-.544.539.541.541 0 01-.544-.54.54.54 0 01.544-.537zM16.685 17.932c.3 0 .545.24.545.538a.542.542 0 01-.545.539.541.541 0 01-.544-.54.54.54 0 01.544-.537z" stroke-width="1.5" stroke-linecap="round" stroke-linejoin="round"/></svg><svg viewBox="0 0 18 18" id="icon-close-btn" xmlns="http://www.w3.org/2000/svg"><g clip-path="url(#lclip0_239_502)"><path d="M10.055 9.005l7.716-7.716A.75.75 0 1016.71.23L8.995 7.945 1.28.23A.75.75 0 00.22 1.29l7.716 7.716L.22 16.721a.75.75 0 001.06 1.06l7.716-7.716 7.716 7.716a.75.75 0 001.06-1.06l-7.716-7.716z"/></g><defs><clipPath id="lclip0_239_502"><path d="M0 0h18v18H0z"/></clipPath></defs></svg><svg viewBox="0 0 35 34" id="icon-delivery" xmlns="http://www.w3.org/2000/svg"><path d="M6.594 24.756l.412.982c.291-.12.594-.207.904-.263l-.192-1.046c-.385.07-.762.18-1.124.327zM3.77 27.393l.968.464a4.373 4.373 0 011.478-1.696l-.607-.877a5.44 5.44 0 00-1.838 2.11z"/><path d="M33.324 27.094c.001-.915-.34-1.797-.958-2.479l-.8.709c.317.35.534.778.63 1.239h-3.71a.543.543 0 00-.446.237l-1.99 2.95h-1.326v-1.593a3.701 3.701 0 011.104-2.628 3.79 3.79 0 012.659-1.091h1.075c.528 0 1.045.153 1.485.442l.596-.884a3.765 3.765 0 00-1.544-.582v-1.632a.528.528 0 00-.157-.376.54.54 0 00-.38-.155c-.57-.001-1.117-.225-1.52-.623a2.115 2.115 0 01-.63-1.503V17h1.612a.54.54 0 00.38-.155c.101-.1.158-.235.158-.376V12.75a.528.528 0 00-.158-.375.54.54 0 00-.38-.156h-.948c-.224 0-.448.031-.664.09v-.621a.528.528 0 00-.118-.332l-1.758-2.173A1.841 1.841 0 0025.1 6.79a1.896 1.896 0 00-2.46.078 1.843 1.843 0 00-.277 2.416c.256.37.636.635 1.073.749.437.114.9.069 1.306-.128l1.594 1.97v.67l-2.363-.779a1.466 1.466 0 00-.481-.078h-4.434l-2.551-2.942c.213-.147.388-.343.508-.57.12-.228.184-.481.184-.738v-.203l.777-.384a.536.536 0 00.28-.34.526.526 0 00-.073-.43l-.883-1.309a.539.539 0 00.313-.183.527.527 0 00.123-.338c0-.846-.34-1.656-.945-2.253a3.248 3.248 0 00-2.28-.935c-1.012 0-1.95.287-2.646 1.049a3.157 3.157 0 00-.818 2.456l.115 1.136c.048.49.285.943.662 1.265V17c0 .374.1.74.289 1.063h-.827c-.183 0-.365.03-.537.091v-6.997c0-.423-.17-.828-.473-1.127a1.624 1.624 0 00-1.14-.467h-6.45c-.427 0-.837.169-1.14.467a1.586 1.586 0 00-.472 1.127v2.656H2.15V12.75h7.525v5.313H2.15v-3.187H1.075v4.337c0 .25.088.49.25.681.16.191.385.32.633.365l5.03.904v1.246c-.456.105-.901.25-1.33.435h-2.97a.54.54 0 00-.38.156c-.101.1-.158.235-.158.375v2.522a7.48 7.48 0 00-1.075 3.854c0 .14.057.276.157.375.101.1.238.156.38.156h2.464a4.26 4.26 0 001.583 1.93 4.336 4.336 0 004.807 0 4.26 4.26 0 001.582-1.93h9.038a2.718 2.718 0 001.988-.87l.575-.625v1.495c0 .14.057.276.158.375.1.1.238.156.38.156h1.114a4.285 4.285 0 002.078 1.801c.874.358 1.844.421 2.758.179a4.302 4.302 0 002.299-1.518 4.218 4.218 0 00.713-3.789.53.53 0 00.175-.392zM23.112 8.234a.79.79 0 01.498-.735.815.815 0 01.878.172.794.794 0 01.175.869.813.813 0 01-1.315.258.794.794 0 01-.236-.563zm-7.69 18.86a2 2 0 01-1.403-.575 1.953 1.953 0 01-.582-1.387c0-.522.134-1.01.485-1.41.314-.357.746-.59 1.22-.658a2.404 2.404 0 001.471-.793c.378-.43.587-.982.587-1.552a.523.523 0 00-.158-.376 1.578 1.578 0 00.065-1.218h1.46l-2.359 6.062a1.222 1.222 0 00-.083.457v1.45h-.702zm1.778-1.062h2.687a.541.541 0 01.514.377.525.525 0 01-.216.596c-.135.058-.28.089-.428.09H17.2v-1.063zm4.17-.093a1.601 1.601 0 00-.489-.63 1.627 1.627 0 00-.735-.32l2.226-5.296a3.067 3.067 0 00-.288-2.908 3.123 3.123 0 00-1.128-1.012 3.164 3.164 0 00-1.479-.366H17.2v-.843l.157.156a.538.538 0 00.38.155h5.468a1.576 1.576 0 00.203 1.452 1.606 1.606 0 001.316.673h.002c-.35.46-.54 1.02-.539 1.594v4.121c0 .282-.114.552-.315.752l-2.501 2.472zm3.354-10.001a.542.542 0 01-.496-.328.526.526 0 01.116-.579.54.54 0 01.918.376.53.53 0 01-.158.375c-.1.1-.237.156-.38.156zm3.763-2.656v2.656h-1.075v-2.49c.204-.109.433-.166.664-.166h.41zm-2.15 2.125a1.579 1.579 0 00-.681-1.302 1.623 1.623 0 00-1.469-.2v-.949l2.15.709v1.742zm-7.525-2.656h4.3v1.062H17.96l-3.068-3.032-.76.752 1.993 1.969v1.905H12.9V9.032h2.44l3.064 3.533a.537.537 0 00.408.186zm-6.15-9.926c.492-.537 1.144-.7 1.85-.7.477.001.94.158 1.316.446.377.289.646.692.766 1.148h-2.082a.54.54 0 00-.38.156c-.1.1-.157.235-.157.376v1.261c-.001.221-.088.433-.242.593a.878.878 0 01-1.5-.506l-.116-1.137a2.079 2.079 0 01.546-1.637zm.44 4.613c.516 0 1.011-.204 1.376-.565.366-.36.571-.85.572-1.36v-.731h1.075c0 .105.031.207.09.295l.737 1.093-.53.262a.536.536 0 00-.297.475v.531a.53.53 0 01-.158.376c-.1.1-.237.155-.38.155H12.9v-.541c.067.006.134.01.201.01zM12.9 17v-.53h6.577c.34 0 .673.082.972.24.298.158.553.386.741.665a2.021 2.021 0 01.19 1.91l-2.39 5.684h-1.545l2.406-6.184a.526.526 0 00-.251-.66.542.542 0 00-.25-.062h-5.375c-.285 0-.559-.112-.76-.311-.202-.2-.315-.47-.315-.752zm-1.613 2.125h4.3a.54.54 0 01.38.156.528.528 0 01-.38.907h-4.3a.54.54 0 01-.38-.155.528.528 0 010-.752.54.54 0 01.38-.155zM2.15 11.688v-.531c0-.141.057-.276.158-.376.1-.1.237-.155.38-.155h6.45c.142 0 .278.056.38.155.1.1.157.235.157.376v.531H2.15zm0 7.437h7.525v1.063H7.573l-5.423-.975v-.088zm1.74 4.782a7.566 7.566 0 00-.665.6v-.6h.664zm4.172 7.968a3.277 3.277 0 01-1.61-.43 3.23 3.23 0 01-1.182-1.163h1.372a2.161 2.161 0 002.841 0h1.371a3.23 3.23 0 01-1.181 1.163c-.49.28-1.045.428-1.61.43zm14.217-3.177a1.614 1.614 0 01-1.193.521H2.172c.116-1.387.68-2.7 1.611-3.744a6.563 6.563 0 013.554-2.054c.14-.03.28-.045.423-.046h3.527v-1.062H8.062V21.25h7.948a1.309 1.309 0 01-.41.512c-.18.133-.39.22-.61.25a3.077 3.077 0 00-1.88 1.013c-.52.592-.748 1.333-.748 2.107 0 .72.26 1.416.734 1.962H8.6v1.063h11.157a2.202 2.202 0 001.52-.623l3.355-3.316c.402-.4.628-.94.63-1.503v-4.12c0-.33.104-.651.296-.92.193-.27.465-.473.779-.583v2.034c0 .753.271 1.481.763 2.056a3.24 3.24 0 001.924 1.087v1.107c-.333 0-.675-.02-1.007.022a4.875 4.875 0 00-2.714 1.164 4.78 4.78 0 00-1.525 2.506l-1.5 1.63zm6.495-1.073h.028l.649.642a.595.595 0 01.075.752.6.6 0 01-.62.253.604.604 0 01-.308-.163l-.494-.489.67-.995zm.25 4.25a3.273 3.273 0 01-1.348-.294 3.24 3.24 0 01-1.102-.823.534.534 0 00.21-.181l.466-.691c.259.375.633.658 1.066.808.434.15.905.159 1.344.025a2.149 2.149 0 001.095-.77 2.108 2.108 0 00.13-2.324h1.18a3.156 3.156 0 01-.408 2.903 3.215 3.215 0 01-1.15.99 3.256 3.256 0 01-1.483.357z"/><path d="M4.3 13.813H3.225V17H4.3v-3.188z"/></svg><svg viewBox="0 0 44 44" id="icon-dish1" xmlns="http://www.w3.org/2000/svg"><g clip-path="url(#nclip0_669_820)"><path d="M31.158 14.657l-.47-1.531c-.599-1.74-2.51-2.671-4.27-2.08a3.347 3.347 0 00-2.105 2.08l-.47 1.531a8.506 8.506 0 00-.244 3.987 3.754 3.754 0 001.954 2.613l-.527 11.65c-.07.65.143 1.3.587 1.785a2.583 2.583 0 003.78 0 2.248 2.248 0 00.587-1.736l-.53-11.7a3.753 3.753 0 001.95-2.612 8.506 8.506 0 00-.242-3.987zm-1.202 3.735a2.307 2.307 0 01-1.522 1.731.725.725 0 00-.474.711l.557 12.236a.833.833 0 01-.22.657 1.143 1.143 0 01-1.594 0 .864.864 0 01-.216-.705l.553-12.188a.725.725 0 00-.474-.71 2.307 2.307 0 01-1.522-1.732 7.068 7.068 0 01.202-3.31l.47-1.532a1.908 1.908 0 013.568 0l.47 1.532a7.078 7.078 0 01.202 3.31zM19.8 10.872a.73.73 0 00-.733.725v6.223l-1.986 1.963a.72.72 0 00-.214.548l.641 12.685a.98.98 0 01-.277.738c-.401.4-1.055.403-1.46.007l-.007-.007a.98.98 0 01-.277-.738l.646-12.685a.72.72 0 00-.214-.548l-1.986-1.963v-6.223a.73.73 0 00-.733-.725.73.73 0 00-.733.725v6.524a.72.72 0 00.214.512l1.97 1.948-.625 12.364c-.067 1.351.987 2.5 2.354 2.565 1.366.066 2.528-.976 2.594-2.326.004-.08.004-.16 0-.239l-.625-12.364 1.97-1.948a.72.72 0 00.214-.512v-6.524a.73.73 0 00-.733-.725z"/><path d="M15.4 10.872a.73.73 0 00-.733.725v5.799c0 .4.328.724.733.724a.73.73 0 00.733-.724v-5.799a.73.73 0 00-.733-.725zM17.6 10.872a.73.73 0 00-.733.725v5.799c0 .4.328.724.733.724a.73.73 0 00.733-.724v-5.799a.73.73 0 00-.733-.725z"/><path d="M22 0C9.85 0 0 9.735 0 21.745c0 12.009 9.85 21.744 22 21.744s22-9.735 22-21.744C43.986 9.74 34.145.014 22 0zm0 42.04c-11.34 0-20.533-9.087-20.533-20.295C1.467 10.536 10.66 1.45 22 1.45c11.34 0 20.533 9.086 20.533 20.295C42.52 32.948 33.335 42.027 22 42.04z"/><path d="M24.38 35.351a.731.731 0 00-.829-.648h.003a13.618 13.618 0 01-3.108 0 .732.732 0 00-.814.635.727.727 0 00.643.805c1.145.133 2.302.133 3.447 0a.727.727 0 00.658-.792zM33.22 12.405a.74.74 0 00-1.033-.09l-.003.003a.72.72 0 00-.088 1.02 12.936 12.936 0 01-.778 17.648.72.72 0 00-.002 1.025.74.74 0 001.037.002 14.374 14.374 0 00.867-19.608zM17.086 9.582l-.002-.001h-.002.004z"/><path d="M25.46 7.653a14.96 14.96 0 00-8.633.524.722.722 0 00.258 1.404.742.742 0 00.256-.047 13.47 13.47 0 017.773-.472.724.724 0 10.345-1.409zM12.65 30.95a12.887 12.887 0 01-3.85-9.205 12.85 12.85 0 012.523-7.675.72.72 0 00-.145-1.015.739.739 0 00-1.04.161 14.371 14.371 0 001.472 18.76.74.74 0 001.039 0 .72.72 0 000-1.026z"/></g><defs><clipPath id="nclip0_669_820"><path d="M0 0h44v43.489H0z"/></clipPath></defs></svg><svg viewBox="0 0 15 15" id="icon-email" xmlns="http://www.w3.org/2000/svg"><path d="M9.318 14.3a.694.694 0 01-.616-.36l-2.041-3.858a.622.622 0 01.05-.66L10.005 5.2 5.538 8.314a.725.725 0 01-.7.046L.757 6.432a.646.646 0 01-.379-.618.653.653 0 01.449-.574L13.896.69a.719.719 0 01.723.15c.19.18.252.447.16.685l-4.816 12.35a.684.684 0 01-.607.424l-.038.001z"/></svg><svg viewBox="0 0 10 21" id="icon-facebook" xmlns="http://www.w3.org/2000/svg"><path d="M2.547 20.526v-9.631H0V7.427h2.547V4.465C2.547 2.137 4.05 0 7.517 0 8.922 0 9.96.135 9.96.135l-.082 3.238s-1.058-.01-2.213-.01c-1.25 0-1.45.576-1.45 1.532v2.532h3.763l-.164 3.468h-3.6v9.631H2.547z"/></svg><svg viewBox="0 0 20 20" id="icon-instagram" xmlns="http://www.w3.org/2000/svg"><path d="M9.748 6.499A3.258 3.258 0 006.496 9.75a3.258 3.258 0 003.252 3.251 3.258 3.258 0 003.25-3.251 3.258 3.258 0 00-3.25-3.251zm9.751 3.251c0-1.346.013-2.68-.063-4.025-.076-1.56-.432-2.946-1.573-4.088C16.719.493 15.336.14 13.775.064 12.428-.01 11.094.001 9.75.001 8.404 0 7.07-.011 5.725.064 4.165.14 2.78.496 1.637 1.637.493 2.781.14 4.164.064 5.725-.01 7.072.001 8.406.001 9.75c0 1.344-.012 2.68.063 4.025.076 1.56.432 2.946 1.573 4.088 1.144 1.144 2.527 1.497 4.088 1.573 1.347.076 2.681.063 4.025.063 1.346 0 2.68.013 4.025-.063 1.56-.076 2.946-.432 4.088-1.573 1.144-1.144 1.497-2.527 1.573-4.088.078-1.344.063-2.679.063-4.025zm-9.751 5.003A4.996 4.996 0 014.745 9.75a4.996 4.996 0 015.003-5.003A4.996 4.996 0 0114.75 9.75a4.996 4.996 0 01-5.002 5.003zm5.207-9.042a1.167 1.167 0 01-1.168-1.169c0-.646.522-1.168 1.168-1.168a1.167 1.167 0 01.827 1.995 1.167 1.167 0 01-.827.342z"/></svg><svg viewBox="0 0 24 24" id="icon-location" xmlns="http://www.w3.org/2000/svg"><g clip-rule="evenodd" stroke-width="1.5" stroke-linecap="round" stroke-linejoin="round"><path d="M14.5 10.5a2.5 2.5 0 10-5 0 2.5 2.5 0 005 0z"/><path d="M12 21c-1.199 0-7.5-5.102-7.5-10.437C4.5 6.387 7.857 3 12 3c4.142 0 7.5 3.387 7.5 7.563C19.5 15.898 13.198 21 12 21z"/></g></svg><svg viewBox="0 0 24 24" id="icon-message" xmlns="http://www.w3.org/2000/svg"><g stroke-width="1.5" stroke-linecap="round" stroke-linejoin="round"><path d="M17.903 8.851l-4.444 3.613c-.84.666-2.02.666-2.86 0L6.12 8.851"/><path clip-rule="evenodd" d="M16.909 21C19.95 21.008 22 18.51 22 15.438V8.57C22 5.499 19.95 3 16.909 3H7.09C4.05 3 2 5.499 2 8.57v6.868C2 18.51 4.05 21.008 7.091 21h9.818z"/></g></svg><svg viewBox="0 0 44 44" id="icon-pizza" xmlns="http://www.w3.org/2000/svg"><g clip-path="url(#tclip0_669_763)"><path d="M43.745 43.752a.859.859 0 01-.892.198L7.159 31.223a4.698 4.698 0 01-4.256.338A4.706 4.706 0 01.359 25.42a46.08 46.08 0 0110.038-15.023A46.078 46.078 0 0125.42.358 4.675 4.675 0 0127.213 0c1.846 0 3.6 1.094 4.35 2.902a4.687 4.687 0 01-.026 3.65l12.418 36.31a.86.86 0 01-.21.89zM12.563 31.325l3.783 1.349a2.186 2.186 0 00-.264-3.235 2.176 2.176 0 00-1.62-.434 2.176 2.176 0 00-1.451.838c-.329.428-.485.95-.448 1.482zM29.974 3.56a2.985 2.985 0 00-3.896-1.614C15.075 6.504 6.505 15.074 1.947 26.077a2.962 2.962 0 000 2.282 2.963 2.963 0 001.614 1.614 2.963 2.963 0 002.282 0 2.963 2.963 0 001.614-1.613 38.432 38.432 0 018.373-12.531 38.434 38.434 0 0112.53-8.373 2.985 2.985 0 001.614-3.896zm7.635 26.06a2.176 2.176 0 00-1.685.855 2.176 2.176 0 00-.434 1.62 2.193 2.193 0 002.458 1.885c.37-.048.716-.192 1.012-.41l-1.35-3.95zm1.922 5.621a3.91 3.91 0 11-2.493-7.29l-1.708-4.995-1.964 1.507a.86.86 0 01-1.047-1.363l2.424-1.86-4.442-12.99a4.68 4.68 0 01-1.282.794C19.91 12.817 12.817 19.91 9.044 29.017c-.13.317-.294.611-.482.882l2.301.82c.08-.693.347-1.354.783-1.922a3.883 3.883 0 013.11-1.53c.854 0 1.681.279 2.371.808a3.884 3.884 0 011.496 2.591c.123.93-.094 1.85-.581 2.613l10.682 3.809.405-.978a.86.86 0 011.588.658l-.372.898 11.406 4.066-2.22-6.49z"/><path d="M9.281 20.945l-.012.019a.858.858 0 01-1.431-.952.86.86 0 011.443.933zM7.974 23.08a40.676 40.676 0 00-2.237 4.567.86.86 0 01-1.588-.657 42.393 42.393 0 012.332-4.761.86.86 0 111.493.851zM26.893 33.001a3.918 3.918 0 01-4.386-3.365 3.914 3.914 0 013.88-4.42 3.918 3.918 0 013.871 3.4A3.914 3.914 0 0126.893 33zm1.661-4.161a2.195 2.195 0 00-2.458-1.886 2.193 2.193 0 00-1.885 2.457 2.194 2.194 0 002.457 1.886 2.193 2.193 0 001.886-2.457zM26.669 22.312a3.918 3.918 0 01-4.386-3.365 3.883 3.883 0 01.774-2.89 3.884 3.884 0 013.105-1.53 3.918 3.918 0 013.872 3.399 3.914 3.914 0 01-3.365 4.386zm1.661-4.162a2.195 2.195 0 00-2.457-1.886 2.176 2.176 0 00-1.452.838 2.176 2.176 0 00-.434 1.62 2.195 2.195 0 002.458 1.886 2.193 2.193 0 001.885-2.458zM21.001 25.872l-2.641.348a.86.86 0 11-.225-1.704l2.641-.348a.86.86 0 01.225 1.704zM19.662 19.53l-.234 1.772a.859.859 0 11-1.704-.224l.234-1.772a.86.86 0 011.704.224z"/></g><defs><clipPath id="tclip0_669_763"><path transform="matrix(1 0 0 -1 0 44)" d="M0 0h44v44H0z"/></clipPath></defs></svg><svg viewBox="0 0 34 34" id="icon-resturent" xmlns="http://www.w3.org/2000/svg"><path d="M32.406 28.156h-3.718V17.484a2.31 2.31 0 001.69-3.092l-1.69-4.397V1.594a.531.531 0 00-.532-.532H5.844a.531.531 0 00-.532.532v8.4l-1.69 4.398a2.31 2.31 0 001.69 3.092v10.672H1.595a.531.531 0 00-.532.532v3.718a.532.532 0 00.532.532h30.812a.532.532 0 00.532-.532v-3.718a.53.53 0 00-.532-.532zm-5.843 0v-11.33c.29.3.658.517 1.062.625v10.705h-1.063zm-4.25.532v3.187h-2.125v-3.719h1.062a.53.53 0 00.531-.531v-1.594a.531.531 0 00-.531-.531h-3.188a.531.531 0 00-.53.531v1.594a.531.531 0 00.53.531h1.063v3.719H17v-3.188a.53.53 0 00-.531-.53h-1.063v-1.595a.529.529 0 00-.531-.53h-1.063v-8.55a2.309 2.309 0 001.313-.79 2.29 2.29 0 001.781.84h.188a2.288 2.288 0 001.78-.84c.077.092.161.178.251.258v1.644a2.659 2.659 0 00-2.656 2.656.533.533 0 00.531.531h5.313a.529.529 0 00.53-.531 2.659 2.659 0 00-2.655-2.656v-1.111c.154.032.311.048.469.048h.166a2.305 2.305 0 001.802-.864 2.302 2.302 0 001.805.864h.102c.334 0 .664-.07.968-.21v8.71h-1.063a.53.53 0 00-.53.532v1.593h-1.063a.532.532 0 00-.532.532zm-3.72-1.594v-.532h2.126v.532h-2.125zM8.264 14.893l1.173-4.268h2.156l-.79 4.8a1.243 1.243 0 01-1.232 1.044h-.102a1.248 1.248 0 01-1.204-1.576zM8.5 17.32c.304.14.634.21.968.21h.102a2.3 2.3 0 001.805-.864 2.306 2.306 0 001.375.825v2.695H8.5v-2.866zm4.677-.852a1.248 1.248 0 01-1.231-1.451l.724-4.393h2.175l-.256 4.664a1.248 1.248 0 01-1.246 1.18h-.166zm4.822-.39a1.237 1.237 0 01-.905.39h-.188a1.25 1.25 0 01-1.245-1.313l.248-4.531h2.182l.248 4.528v.003a1.233 1.233 0 01-.34.923zm1.412-.79l-.256-4.664h2.175l.724 4.393a1.248 1.248 0 01-1.231 1.45h-.166a1.248 1.248 0 01-1.246-1.179zm.776 4.367a1.597 1.597 0 011.503 1.063h-4.068a1.597 1.597 0 011.503-1.063h1.063zm5.338-3.679a1.239 1.239 0 01-.992.492h-.104a1.244 1.244 0 01-1.23-1.045l-.792-4.799h2.157l1.172 4.265v.003a1.24 1.24 0 01-.211 1.084zm-.556 11.117h.531v1.062h-.531v-1.062zm4.418-12.321a1.248 1.248 0 11-2.368.779l-1.354-4.927h2.127l1.595 4.148zM6.375 2.125h21.25v7.438H6.375V2.125zM4.749 15.928a1.23 1.23 0 01-.136-1.155l1.595-4.148h2.127L6.98 15.552a1.252 1.252 0 01-1.785.775 1.23 1.23 0 01-.447-.4zm1.626 1.523a2.305 2.305 0 001.063-.626v11.331H6.375V17.452zm4.25 14.424h-8.5v-2.656h8.5v2.656zm.531-3.719H8.5V21.25h4.25v10.625h-1.063v-3.188a.53.53 0 00-.53-.53zm2.656-1.062h.532v1.593a.529.529 0 00.531.532h1.063v2.656h-2.126v-4.781zm18.063 4.781h-8.5v-2.656h8.5v2.656z"/><path d="M20.719 6.375h-.577a3.195 3.195 0 00-2.61-2.611v-.576a.531.531 0 10-1.063 0v.576a3.195 3.195 0 00-2.611 2.611h-.577a.531.531 0 00-.531.531 2.127 2.127 0 002.125 2.125h4.25a2.127 2.127 0 002.125-2.125.531.531 0 00-.531-.531zM17 4.781a2.129 2.129 0 012.058 1.594h-4.116A2.129 2.129 0 0117 4.781zm2.125 3.188h-4.25a1.063 1.063 0 01-.92-.532h6.09a1.064 1.064 0 01-.92.532zM13.045 5.223a.532.532 0 00.236-.442V3.188H12.22v1.29a2.339 2.339 0 01-.531.194V3.188h-1.063v1.484a2.337 2.337 0 01-.531-.194v-1.29H9.03V4.78a.531.531 0 00.237.442c.409.273.872.454 1.357.531v3.277h1.063V5.754a3.406 3.406 0 001.357-.53zM22.844 2.656a2.125 2.125 0 00-.532 4.183v2.192h1.063V6.84a2.125 2.125 0 00-.531-4.183zm0 3.188a1.063 1.063 0 110-2.126 1.063 1.063 0 010 2.126z"/></svg><svg viewBox="0 0 44 44" id="icon-sandwich" xmlns="http://www.w3.org/2000/svg"><path d="M41.8 6.6h-1.467V5.133a2.2 2.2 0 00-2.2-2.2h-1.747L35.326.811A1.457 1.457 0 0034.012 0H33c-.81 0-1.467.657-1.467 1.467v1.466h-8.066a2.2 2.2 0 00-2.2 2.2V6.6H19.8a2.2 2.2 0 00-2.2 2.2v1.467c0 .81.657 1.466 1.467 1.466h.077l.858 7.577-3.533-.83a11.127 11.127 0 00-.576-.813L14.646 12.3a.733.733 0 00-.713-.568H9.72C7.73 9.981 5.382 9.19 3.61 9.711L2.532 8.537a1.448 1.448 0 00-1.605-.366c-.56.216-.93.755-.928 1.355v32.289A2.188 2.188 0 002.185 44h35.948c.373 0 .686-.28.728-.65l3.593-31.617h.08c.81 0 1.466-.657 1.466-1.466V8.8a2.2 2.2 0 00-2.2-2.2zM33 1.467h1.013l.734 1.466H33V1.467zM22.733 5.133c0-.405.329-.733.734-.733h14.666c.405 0 .734.328.734.733V6.6H22.733V5.133zm-2.053 15.84l.046.009.593.14.397 4.162a6.758 6.758 0 00-3.94-1.242 6.28 6.28 0 00-.411-3.848l3.315.78zm1.433 6.487l.01.008c.265.245.517.505.755.778a8.686 8.686 0 011.876 3.388c.124.437.188.89.19 1.344l-6.85-7.47c1.524.17 2.943.86 4.019 1.952zm-7.728-9.32v-.002c1.583 1.819 2.32 4.003 1.97 5.472l-7.463-8.137c1.505-.336 3.795.721 5.493 2.667zm-1.038-4.94l.586 2.497a9.342 9.342 0 00-1.913-1.154 11.558 11.558 0 00-.928-1.343h2.255zm-3.687.546h.003c.06.07.11.146.17.22a3.99 3.99 0 00-2.012.338l-3.015-3.288c1.474.021 3.398 1.058 4.854 2.73zm21.077 28.356a.717.717 0 01-.656.431H2.185a.719.719 0 01-.718-.718L1.453 9.533l14.72 16.048v.004l8.644 9.424.01.011 4.74 5.172c.018.022.035.044.055.065l.983 1.072a.716.716 0 01.132.773zm-4.54-7.757a4.61 4.61 0 00.203-1.352c.385.325.744.68 1.074 1.061.41.468.773.975 1.086 1.513.428.72.73 1.507.895 2.329l-3.257-3.551zm11.281 8.188h-5.342c.275-.76.1-1.61-.45-2.2l-.74-.806a6.691 6.691 0 00-.571-3.594h7.854l-.75 6.6zm.917-8.066h-8.8a11.218 11.218 0 00-1.009-1.375 10.69 10.69 0 00-2.512-2.136 10.145 10.145 0 00-2.09-3.676c-.22-.25-.44-.482-.671-.706l-.58-6.11a.733.733 0 00-.56-.644l-.65-.154-.154-1.333h18.86l-1.834 16.134zm2-17.6H21.203l-.58-5.134h20.357l-.583 5.134zm2.138-6.6H19.067V8.8c0-.405.328-.733.733-.733h22c.405 0 .733.328.733.733v1.467z"/><path d="M31.1 32.267c.042 0 .083-.006.124-.008.011 0 .023.008.034.008a.692.692 0 00.109-.016 3.967 3.967 0 002.899-1.567 5.101 5.101 0 00.714-4.475c-.102-.38-.195-.753-.285-1.113-.572-2.293-1.119-4.456-3.435-4.553-.024 0-.046-.004-.07-.004-.023 0-.057-.006-.09-.006-2.591 0-4.7 2.632-4.7 5.867s2.109 5.867 4.7 5.867zm.568-10.157c.758.298 1.092 1.291 1.604 3.341.092.367.187.751.293 1.14a3.656 3.656 0 01-.464 3.2 2.59 2.59 0 01-.876.734 10.656 10.656 0 00-.733-3.68c-.073-.23-.147-.45-.211-.66-.427-1.389.073-3.188.387-4.075zm-1.576.11a8.05 8.05 0 00-.212 4.393c.068.22.143.448.22.685.367 1.12.807 2.472.627 3.468-1.607-.25-2.86-2.112-2.86-4.366 0-1.947.935-3.6 2.225-4.18zM3.881 38.563l-.518.519A.733.733 0 104.4 40.118l.518-.518a.733.733 0 00-1.037-1.037zM10.893 33.626a.734.734 0 00-1.038-1.037l-.518.518a.733.733 0 101.037 1.038l.519-.519zM4.4 31.748l-.519.519a.733.733 0 101.037 1.037l.519-.519A.733.733 0 004.4 31.748zM4.4 26.615l-.519.518a.733.733 0 101.037 1.037l.519-.518A.733.733 0 004.4 26.615zM11 38.563l-.518.519a.733.733 0 101.036 1.036l.519-.518A.733.733 0 0011 38.563zM16.348 38.563l-.518.518a.734.734 0 101.037 1.037l.518-.518a.733.733 0 00-1.037-1.037z"/></svg><svg viewBox="0 0 21 22" id="icon-search" xmlns="http://www.w3.org/2000/svg"><ellipse cx="9.767" cy="10.63" rx="8.989" ry="8.884" stroke-width="1.5" stroke-linecap="round" stroke-linejoin="round"/><path d="M16.018 17.27l3.524 3.475" stroke-width="1.5" stroke-linecap="round" stroke-linejoin="round"/></svg><svg viewBox="0 0 22 22" id="icon-time" xmlns="http://www.w3.org/2000/svg"><g opacity=".9"><path d="M11.575 2.54v-.959a.611.611 0 00-1.222 0v.965c-4.803.333-8.609 4.344-8.609 9.23 0 5.102 4.153 9.254 9.256 9.254 5.103 0 9.256-4.152 9.256-9.255 0-4.91-3.845-8.937-8.681-9.235zM11 19.808c-4.43 0-8.033-3.604-8.033-8.033 0-4.43 3.603-8.032 8.033-8.032s8.033 3.603 8.033 8.032S15.43 19.808 11 19.808z"/><path d="M7.863 17.322a6.39 6.39 0 01-3.234-5.547.305.305 0 10-.611 0 7.003 7.003 0 003.544 6.079.306.306 0 10.3-.532zM9.53 18.16a6.839 6.839 0 01-.353-.102.305.305 0 00-.186.582c.127.04.255.078.385.11a.305.305 0 00.153-.59zM18.885 5.728a.611.611 0 00.863-.865L18.162 3.28a.61.61 0 10-.863.865l1.586 1.583zM11.575 11.661V6.776a.611.611 0 00-1.223 0v5.15c0 .168.088.328.21.443l1.789 1.672a.61.61 0 00.657.117.61.61 0 00.164-1.006l-1.597-1.49z"/></g></svg><svg viewBox="0 0 34 34" id="icon-timer" xmlns="http://www.w3.org/2000/svg"><g clip-path="url(#yclip0_669_850)"><path d="M31.754 12.881l.996-.996c.288-.288.447-.67.447-1.078 0-.407-.159-.79-.447-1.077l-1.14-1.141a1.514 1.514 0 00-1.078-.447c-.407 0-.79.159-1.078.447l-.996.996a12.7 12.7 0 00-4.412-1.933V6.179h.606a1.49 1.49 0 001.488-1.488v-2.07a1.49 1.49 0 00-1.488-1.488H17.8a1.49 1.49 0 00-1.488 1.488v2.07c0 .82.668 1.488 1.488 1.488h.606v1.477a12.703 12.703 0 00-4.392 1.929l-.996-.996a1.514 1.514 0 00-1.078-.447c-.407 0-.79.159-1.078.447l-1.14 1.14a1.526 1.526 0 000 2.156l.176.177H5.19a.664.664 0 000 1.328h5.193a12.713 12.713 0 00-1.215 2.552H.664a.664.664 0 000 1.328H8.79a12.747 12.747 0 00-.314 2.553H4.25a.664.664 0 000 1.328h4.265c.072.879.233 1.733.474 2.552H3.32a.664.664 0 000 1.329h6.142c1.932 4.598 6.482 7.835 11.774 7.835C28.274 32.867 34 27.142 34 20.104c0-2.678-.83-5.167-2.246-7.222zm-1.36-3.353a.192.192 0 01.138-.058c.037 0 .091.01.139.058l1.14 1.14a.193.193 0 01.058.14c0 .037-.01.09-.058.138l-.873.873c-.435-.509-.91-.983-1.418-1.418l.873-.873zM17.64 4.69v-2.07a.16.16 0 01.16-.16h6.852a.16.16 0 01.16.16v2.07a.16.16 0 01-.16.16H17.8a.16.16 0 01-.16-.16zm2.095 1.488h2.983v1.247a12.835 12.835 0 00-2.983.002V6.179zm-9.075 4.49l1.141-1.141a.192.192 0 01.139-.058c.037 0 .091.01.139.058l.873.873c-.51.435-.983.91-1.418 1.418l-.874-.873a.196.196 0 010-.277zm10.576 20.87C14.93 31.54 9.8 26.41 9.8 20.103S14.93 8.667 21.236 8.667s11.436 5.13 11.436 11.436-5.13 11.436-11.436 11.436z"/><path d="M25.619 14.781l-3.14 3.14a2.498 2.498 0 00-1.243-.331 2.517 2.517 0 00-2.514 2.513 2.517 2.517 0 002.514 2.514 2.516 2.516 0 002.514-2.514c0-.452-.121-.877-.331-1.244l3.139-3.139a.664.664 0 00-.94-.939zm-4.383 6.508a1.187 1.187 0 01-1.186-1.186 1.187 1.187 0 012.371 0c0 .654-.531 1.186-1.185 1.186zM21.236 11.494a.669.669 0 00.47-.195.67.67 0 00.194-.47.669.669 0 00-.664-.664.67.67 0 00-.47.195.668.668 0 00.47 1.134zM21.236 28.713a.669.669 0 00-.47.194.668.668 0 00.47 1.134.666.666 0 00.47-1.134.669.669 0 00-.47-.194zM14.678 12.882a.67.67 0 00-.47.194.67.67 0 00-.194.47.67.67 0 00.195.47.669.669 0 00.939 0 .671.671 0 00.194-.47.669.669 0 00-.664-.664zM27.794 25.997a.67.67 0 00-.47.194.668.668 0 000 .94.669.669 0 00.94 0 .67.67 0 00.194-.47.669.669 0 00-.664-.664zM14.678 25.997a.67.67 0 00-.47.194.67.67 0 00-.194.47c0 .174.071.346.195.47a.67.67 0 00.47.194.669.669 0 00.663-.664.669.669 0 00-.664-.664zM11.963 19.44a.668.668 0 00-.665.663.667.667 0 00.665.664.666.666 0 00.664-.664.669.669 0 00-.195-.47.669.669 0 00-.47-.194zM30.98 19.634a.667.667 0 00-1.134.47.668.668 0 00.664.663.669.669 0 00.47-.194.669.669 0 00.194-.47.669.669 0 00-.195-.47zM.664 23.704a.669.669 0 00-.47.194.67.67 0 00-.194.47.67.67 0 00.195.47.67.67 0 00.47.194.669.669 0 00.468-.195.67.67 0 00.195-.47.67.67 0 00-.195-.47.668.668 0 00-.469-.193z"/><path d="M30.314 18.087a.664.664 0 00.447-.826 9.964 9.964 0 00-6.704-6.689.664.664 0 10-.376 1.274 8.576 8.576 0 015.807 5.794.664.664 0 00.826.447z"/></g><defs><clipPath id="yclip0_669_850"><path d="M0 0h34v34H0z"/></clipPath></defs></svg><svg viewBox="0 0 21 17" id="icon-twitter" xmlns="http://www.w3.org/2000/svg"><path d="M20.526 1.98a8.436 8.436 0 01-2.422.652 4.196 4.196 0 001.85-2.319 8.304 8.304 0 01-2.67 1.017A4.196 4.196 0 0014.212 0a4.205 4.205 0 00-4.206 4.208c0 .326.04.652.104.965A11.954 11.954 0 011.436.77a4.177 4.177 0 00-.573 2.124c0 1.46.743 2.748 1.875 3.505a4.243 4.243 0 01-1.902-.535v.051a4.207 4.207 0 003.372 4.13 4.456 4.456 0 01-1.107.143c-.274 0-.533-.027-.795-.064a4.214 4.214 0 003.933 2.918 8.43 8.43 0 01-5.223 1.798c-.352 0-.678-.012-1.016-.051a11.911 11.911 0 006.46 1.887c7.737 0 11.97-6.41 11.97-11.972 0-.182 0-.365-.013-.547a9.06 9.06 0 002.11-2.176z"/></svg></svg>