<svg width="104" height="16" viewBox="0 0 104 16" fill="none" xmlns="http://www.w3.org/2000/svg">
<g clip-path="url(#clip0_3197_780)">
<path d="M0.022973 6.16429C0.0780978 5.99457 0.224753 5.87088 0.401315 5.84526L5.36139 5.12448L7.57966 0.629902C7.6586 0.469903 7.82157 0.368622 7.99997 0.368622C8.17841 0.368622 8.34135 0.469903 8.42032 0.629902L10.6387 5.12448L15.5987 5.84526C15.7752 5.87088 15.9219 5.99457 15.977 6.16426C16.0322 6.33397 15.9862 6.52025 15.8584 6.64478L12.2694 10.1433L13.1165 15.0834C13.1467 15.2593 13.0744 15.437 12.9301 15.5419C12.8484 15.6012 12.7517 15.6314 12.6545 15.6314C12.5799 15.6314 12.505 15.6136 12.4365 15.5775L8 13.2451L3.56374 15.5775C3.40577 15.6605 3.21443 15.6467 3.07009 15.5418C2.92574 15.437 2.8534 15.2592 2.88356 15.0833L3.73096 10.1433L0.141567 6.64475C0.0138172 6.52025 -0.0322143 6.33397 0.022973 6.16429Z" fill="#C1C1C1"/>
</g>
<g clip-path="url(#clip1_3197_780)">
<path d="M22.023 6.16429C22.0781 5.99457 22.2248 5.87088 22.4013 5.84526L27.3614 5.12448L29.5797 0.629902C29.6586 0.469903 29.8216 0.368622 30 0.368622C30.1784 0.368622 30.3413 0.469903 30.4203 0.629902L32.6387 5.12448L37.5987 5.84526C37.7752 5.87088 37.9219 5.99457 37.977 6.16426C38.0322 6.33397 37.9862 6.52025 37.8584 6.64478L34.2694 10.1433L35.1165 15.0834C35.1467 15.2593 35.0744 15.437 34.9301 15.5419C34.8484 15.6012 34.7517 15.6314 34.6545 15.6314C34.5799 15.6314 34.505 15.6136 34.4365 15.5775L30 13.2451L25.5637 15.5775C25.4058 15.6605 25.2144 15.6467 25.0701 15.5418C24.9257 15.437 24.8534 15.2592 24.8836 15.0833L25.731 10.1433L22.1416 6.64475C22.0138 6.52025 21.9678 6.33397 22.023 6.16429Z" fill="#C1C1C1"/>
</g>
<g clip-path="url(#clip2_3197_780)">
<path d="M44.023 6.16429C44.0781 5.99457 44.2248 5.87088 44.4013 5.84526L49.3614 5.12448L51.5797 0.629902C51.6586 0.469903 51.8216 0.368622 52 0.368622C52.1784 0.368622 52.3413 0.469903 52.4203 0.629902L54.6387 5.12448L59.5987 5.84526C59.7752 5.87088 59.9219 5.99457 59.977 6.16426C60.0322 6.33397 59.9862 6.52025 59.8584 6.64478L56.2694 10.1433L57.1165 15.0834C57.1467 15.2593 57.0744 15.437 56.9301 15.5419C56.8484 15.6012 56.7517 15.6314 56.6545 15.6314C56.5799 15.6314 56.505 15.6136 56.4365 15.5775L52 13.2451L47.5637 15.5775C47.4058 15.6605 47.2144 15.6467 47.0701 15.5418C46.9257 15.437 46.8534 15.2592 46.8836 15.0833L47.731 10.1433L44.1416 6.64475C44.0138 6.52025 43.9678 6.33397 44.023 6.16429Z" fill="#C1C1C1"/>
</g>
<g clip-path="url(#clip3_3197_780)">
<path d="M66.023 6.16429C66.0781 5.99457 66.2248 5.87088 66.4013 5.84526L71.3614 5.12448L73.5797 0.629902C73.6586 0.469903 73.8216 0.368622 74 0.368622C74.1784 0.368622 74.3413 0.469903 74.4203 0.629902L76.6387 5.12448L81.5987 5.84526C81.7752 5.87088 81.9219 5.99457 81.977 6.16426C82.0322 6.33397 81.9862 6.52025 81.8584 6.64478L78.2694 10.1433L79.1165 15.0834C79.1467 15.2593 79.0744 15.437 78.9301 15.5419C78.8484 15.6012 78.7517 15.6314 78.6545 15.6314C78.5799 15.6314 78.505 15.6136 78.4365 15.5775L74 13.2451L69.5637 15.5775C69.4058 15.6605 69.2144 15.6467 69.0701 15.5418C68.9257 15.437 68.8534 15.2592 68.8836 15.0833L69.731 10.1433L66.1416 6.64475C66.0138 6.52025 65.9678 6.33397 66.023 6.16429Z" fill="#C1C1C1"/>
</g>
<g clip-path="url(#clip4_3197_780)">
<path d="M88.023 6.16429C88.0781 5.99457 88.2248 5.87088 88.4013 5.84526L93.3614 5.12448L95.5797 0.629902C95.6586 0.469903 95.8216 0.368622 96 0.368622C96.1784 0.368622 96.3413 0.469903 96.4203 0.629902L98.6387 5.12448L103.599 5.84526C103.775 5.87088 103.922 5.99457 103.977 6.16426C104.032 6.33397 103.986 6.52025 103.858 6.64478L100.269 10.1433L101.117 15.0834C101.147 15.2593 101.074 15.437 100.93 15.5419C100.848 15.6012 100.752 15.6314 100.655 15.6314C100.58 15.6314 100.505 15.6136 100.436 15.5775L96 13.2451L91.5637 15.5775C91.4058 15.6605 91.2144 15.6467 91.0701 15.5418C90.9257 15.437 90.8534 15.2592 90.8836 15.0833L91.731 10.1433L88.1416 6.64475C88.0138 6.52025 87.9678 6.33397 88.023 6.16429Z" fill="#C1C1C1"/>
</g>
<defs>
<clipPath id="clip0_3197_780">
<rect width="16" height="16" fill="white" transform="matrix(-1 0 0 1 16 0)"/>
</clipPath>
<clipPath id="clip1_3197_780">
<rect width="16" height="16" fill="white" transform="matrix(-1 0 0 1 38 0)"/>
</clipPath>
<clipPath id="clip2_3197_780">
<rect width="16" height="16" fill="white" transform="matrix(-1 0 0 1 60 0)"/>
</clipPath>
<clipPath id="clip3_3197_780">
<rect width="16" height="16" fill="white" transform="matrix(-1 0 0 1 82 0)"/>
</clipPath>
<clipPath id="clip4_3197_780">
<rect width="16" height="16" fill="white" transform="matrix(-1 0 0 1 104 0)"/>
</clipPath>
</defs>
</svg>
