<svg width="35" height="34" viewBox="0 0 35 34" fill="none" xmlns="http://www.w3.org/2000/svg">
<path d="M6.59412 24.7564L7.0065 25.7382C7.29738 25.6189 7.60032 25.5306 7.91016 25.475L7.71794 24.4291C7.33262 24.4983 6.95588 24.6081 6.59412 24.7564V24.7564Z" fill="#31352B"/>
<path d="M3.77051 27.3935L4.73799 27.8566C5.07282 27.1739 5.58215 26.5895 6.21561 26.161L5.60892 25.2839C4.82077 25.8169 4.18707 26.5441 3.77051 27.3935V27.3935Z" fill="#31352B"/>
<path d="M33.3243 27.0943C33.325 26.1794 32.9837 25.2965 32.3661 24.615L31.5651 25.3236C31.8829 25.6741 32.1005 26.1019 32.1956 26.563H28.4869C28.3984 26.5631 28.3113 26.5846 28.2333 26.6259C28.1553 26.6672 28.0888 26.7268 28.0397 26.7996L26.0493 29.7505H24.7245V28.1568C24.7256 27.1709 25.1224 26.2256 25.8277 25.5285C26.5331 24.8313 27.4894 24.4392 28.4869 24.438H29.5619C30.0905 24.4372 30.6074 24.5911 31.0475 24.8804L31.6428 23.9957C31.1787 23.6903 30.6513 23.4914 30.0994 23.4135V21.7818C30.0994 21.6409 30.0428 21.5058 29.942 21.4061C29.8412 21.3065 29.7045 21.2505 29.5619 21.2505C28.9919 21.2499 28.4454 21.0258 28.0424 20.6275C27.6393 20.2291 27.4126 19.6889 27.4119 19.1255V17.0005H29.0244C29.167 17.0005 29.3037 16.9446 29.4045 16.845C29.5053 16.7453 29.5619 16.6102 29.5619 16.4693V12.7505C29.5619 12.6097 29.5053 12.4745 29.4045 12.3749C29.3037 12.2753 29.167 12.2193 29.0244 12.2193H28.0764C27.8518 12.2196 27.6283 12.2501 27.4119 12.3098V11.688C27.412 11.5674 27.3704 11.4503 27.2942 11.356L25.5356 9.18321C25.766 8.79913 25.8488 8.34593 25.769 7.90645C25.6892 7.46696 25.452 7.07054 25.1009 6.78963C24.7497 6.50873 24.308 6.3621 23.8565 6.37655C23.405 6.39099 22.9738 6.56555 22.6418 6.86832C22.3097 7.17108 22.099 7.58184 22.0481 8.0255C21.9973 8.46917 22.1096 8.91612 22.3646 9.28467C22.6197 9.65321 23.0004 9.91874 23.4372 10.0327C23.8739 10.1467 24.3376 10.1015 24.7435 9.90544L26.337 11.8744V12.5447L23.974 11.7662C23.8192 11.7135 23.6565 11.687 23.4928 11.688H19.0594L16.5076 8.74552C16.7211 8.59892 16.8956 8.40344 17.0161 8.17577C17.1366 7.9481 17.1995 7.69499 17.1996 7.43805V7.23511L17.9775 6.85069C18.0457 6.81699 18.1058 6.76936 18.1539 6.71095C18.2021 6.65253 18.237 6.58467 18.2566 6.51187C18.2762 6.43906 18.2798 6.36298 18.2674 6.28867C18.2549 6.21436 18.2266 6.14351 18.1843 6.08084L17.3015 4.77197C17.4241 4.74859 17.5346 4.68376 17.6141 4.58861C17.6936 4.49347 17.7371 4.37394 17.7371 4.25055C17.7362 3.40547 17.3961 2.59528 16.7915 1.99771C16.1869 1.40015 15.3672 1.06402 14.5122 1.06305C13.5 1.06305 12.5628 1.35039 11.8657 2.11174C11.5637 2.44213 11.3349 2.83129 11.1941 3.25425C11.0532 3.67721 11.0034 4.1246 11.0479 4.56771L11.1629 5.70405C11.2113 6.194 11.4482 6.64686 11.8247 6.96909V17.0005C11.8244 17.3738 11.9243 17.7404 12.114 18.063H11.2873C11.1041 18.063 10.9223 18.0939 10.7498 18.1544V11.1568C10.7493 10.7343 10.5792 10.3292 10.277 10.0304C9.97466 9.73159 9.5648 9.56352 9.1373 9.56305H2.68742C2.25991 9.56352 1.85006 9.73159 1.54776 10.0304C1.24547 10.3292 1.07543 10.7343 1.07495 11.1568V13.813H2.14993V12.7505H9.67479V18.063H2.14993V14.8755H1.07495V19.2134C1.07483 19.4623 1.16315 19.7033 1.32448 19.8943C1.4858 20.0854 1.7099 20.2144 1.95764 20.2588L6.98734 21.1627V22.4093C6.53164 22.5136 6.08664 22.6592 5.65799 22.8443H2.68742C2.54487 22.8443 2.40816 22.9003 2.30736 22.9999C2.20656 23.0995 2.14993 23.2347 2.14993 23.3755V25.8971C1.44765 27.0627 1.07629 28.3939 1.07495 29.7505C1.07495 29.8914 1.13158 30.0266 1.23238 30.1262C1.33318 30.2258 1.46989 30.2818 1.61244 30.2818H4.07623C4.39744 31.0666 4.94845 31.7387 5.65863 32.2119C6.36882 32.6851 7.20581 32.938 8.06232 32.938C8.91882 32.938 9.75582 32.6851 10.466 32.2119C11.1762 31.7387 11.7272 31.0666 12.0484 30.2818H21.0857C21.4601 30.2816 21.8304 30.2042 22.1728 30.0545C22.5152 29.9048 22.8223 29.6862 23.0744 29.4125L23.6495 28.7871V30.2818C23.6495 30.4227 23.7061 30.5578 23.8069 30.6575C23.9077 30.7571 24.0445 30.813 24.187 30.813H25.3007C25.774 31.6232 26.5045 32.2564 27.379 32.6144C28.2535 32.9724 29.2231 33.0352 30.1373 32.793C31.0516 32.5509 31.8595 32.0174 32.4357 31.2752C33.0119 30.533 33.3243 29.6236 33.3243 28.688C33.3247 28.2812 33.2658 27.8763 33.1492 27.4861C33.2044 27.4365 33.2485 27.376 33.2787 27.3085C33.3088 27.241 33.3244 27.1681 33.3243 27.0943ZM23.112 8.23492C23.112 8.07732 23.1593 7.92325 23.2479 7.7922C23.3365 7.66116 23.4624 7.55902 23.6097 7.49871C23.757 7.43839 23.9192 7.42261 24.0756 7.45336C24.2319 7.48411 24.3756 7.56 24.4884 7.67145C24.6011 7.78289 24.6779 7.92488 24.709 8.07946C24.7401 8.23404 24.7241 8.39426 24.6631 8.53987C24.6021 8.68548 24.4988 8.80994 24.3662 8.8975C24.2336 8.98506 24.0777 9.0318 23.9183 9.0318C23.7045 9.03157 23.4996 8.94754 23.3484 8.79815C23.1973 8.64875 23.1123 8.4462 23.112 8.23492V8.23492ZM15.4226 27.0943C14.8962 27.0937 14.3916 26.8868 14.0194 26.5189C13.6472 26.151 13.4378 25.6522 13.4372 25.1319C13.4372 24.6104 13.5706 24.1226 13.9223 23.7213C14.2357 23.3646 14.6685 23.1312 15.1415 23.0638C15.7126 22.9833 16.2351 22.7018 16.6132 22.2711C16.9913 21.8405 17.1995 21.2895 17.1996 20.7193C17.1997 20.6495 17.1859 20.5803 17.1588 20.5159C17.1318 20.4514 17.0921 20.3928 17.0421 20.3435C17.1334 20.1547 17.1862 19.9499 17.1974 19.7409C17.2086 19.5319 17.1779 19.3228 17.1072 19.1255H18.567L16.2084 25.1867C16.1514 25.3327 16.123 25.488 16.1247 25.6445V27.0943H15.4226ZM17.1996 26.0318H19.8871C20.0024 26.0319 20.1145 26.0686 20.2071 26.1366C20.2996 26.2045 20.3676 26.3 20.401 26.4091C20.4344 26.5181 20.4315 26.6349 20.3926 26.7422C20.3538 26.8494 20.281 26.9415 20.1852 27.0048C20.0501 27.0633 19.9043 27.0938 19.7567 27.0943H17.1996V26.0318ZM21.3707 25.9388C21.2638 25.6916 21.0955 25.4751 20.8815 25.3092C20.6674 25.1434 20.4145 25.0335 20.1462 24.9899L22.3721 19.6931C22.5699 19.2224 22.6471 18.7107 22.597 18.2033C22.5468 17.696 22.3707 17.2088 22.0844 16.7848C21.798 16.3609 21.4103 16.0133 20.9555 15.7729C20.5007 15.5325 19.993 15.4068 19.4773 15.4068H17.1996V14.5644L17.3571 14.72C17.407 14.7693 17.4662 14.8084 17.5314 14.8351C17.5967 14.8618 17.6665 14.8756 17.7371 14.8755H23.2045C23.1184 15.1159 23.0919 15.3732 23.1273 15.6258C23.1626 15.8784 23.2588 16.1189 23.4078 16.3271C23.5567 16.5353 23.754 16.7051 23.9831 16.8223C24.2123 16.9395 24.4665 17.0006 24.7245 17.0005H24.726C24.3756 17.4597 24.1864 18.0192 24.187 18.5943V22.7155C24.1862 22.9971 24.073 23.267 23.8721 23.4667L21.3707 25.9388ZM24.7245 15.938C24.6182 15.938 24.5143 15.9069 24.4259 15.8485C24.3375 15.7901 24.2686 15.7072 24.2279 15.6101C24.1872 15.513 24.1766 15.4062 24.1973 15.3032C24.2181 15.2001 24.2693 15.1054 24.3444 15.0311C24.4196 14.9569 24.5154 14.9063 24.6196 14.8858C24.7239 14.8653 24.832 14.8758 24.9302 14.916C25.0284 14.9562 25.1123 15.0243 25.1714 15.1117C25.2305 15.199 25.262 15.3017 25.262 15.4068C25.2618 15.5476 25.2051 15.6827 25.1044 15.7823C25.0036 15.8819 24.867 15.9379 24.7245 15.938V15.938ZM28.4869 13.2818V15.938H27.4119V13.4472C27.6164 13.339 27.8446 13.2822 28.0764 13.2818H28.4869ZM26.337 15.4068C26.337 15.1518 26.2752 14.9005 26.1566 14.6741C26.0381 14.4476 25.8662 14.2526 25.6556 14.1054C25.4449 13.9581 25.2016 13.8631 24.9461 13.8281C24.6905 13.7931 24.4302 13.8193 24.187 13.9044V12.9564L26.337 13.6647V15.4068ZM18.8121 12.7505H23.112V13.813H17.9598L14.8923 10.7811L14.1321 11.5325L16.1247 13.5018V15.4068H12.8997V9.0318H15.3399L18.404 12.5651C18.4545 12.6233 18.5171 12.67 18.5875 12.702C18.658 12.734 18.7346 12.7506 18.8121 12.7505V12.7505ZM12.6628 2.82467C13.1541 2.28805 13.8061 2.12555 14.5122 2.12555C14.9887 2.12615 15.4516 2.28292 15.8283 2.57131C16.205 2.8597 16.4744 3.26344 16.5942 3.7193H14.5122C14.3696 3.7193 14.2329 3.77527 14.1321 3.8749C14.0313 3.97453 13.9747 4.10965 13.9747 4.25055V5.51227C13.9739 5.73321 13.8874 5.94543 13.7331 6.10525C13.5787 6.26507 13.3683 6.36032 13.145 6.37138C12.9218 6.38244 12.7027 6.30848 12.533 6.16472C12.3632 6.02096 12.2557 5.81835 12.2326 5.5986L12.1175 4.46225C12.086 4.16671 12.1184 3.86792 12.2123 3.58563C12.3063 3.30334 12.4598 3.04398 12.6628 2.82467V2.82467ZM13.1013 7.43805C13.6179 7.43752 14.1131 7.23446 14.4784 6.87342C14.8437 6.51238 15.0491 6.02286 15.0497 5.51227V4.7818H16.1247C16.1246 4.8867 16.1561 4.98925 16.215 5.07651L16.9522 6.16969L16.4214 6.43186C16.3322 6.47602 16.2573 6.54382 16.2048 6.6277C16.1524 6.71158 16.1247 6.80822 16.1247 6.9068V7.43805C16.1245 7.5789 16.0678 7.71393 15.9671 7.81352C15.8663 7.91312 15.7297 7.96914 15.5872 7.9693H12.8997V7.42762C12.9667 7.43448 13.034 7.43796 13.1013 7.43805ZM12.8997 17.0005V16.4693H19.4773C19.8161 16.4693 20.1498 16.552 20.4486 16.7099C20.7474 16.8679 21.0021 17.0963 21.1903 17.3749C21.3784 17.6535 21.494 17.9736 21.527 18.307C21.56 18.6403 21.5092 18.9765 21.3792 19.2859L18.9908 24.9693H17.4447L19.8513 18.785C19.8826 18.7045 19.8936 18.6177 19.8834 18.5321C19.8732 18.4465 19.8421 18.3646 19.7927 18.2935C19.7433 18.2225 19.6771 18.1643 19.6 18.1242C19.5228 18.084 19.4368 18.063 19.3496 18.063H13.9747C13.6897 18.0627 13.4165 17.9507 13.215 17.7515C13.0134 17.5523 12.9001 17.2822 12.8997 17.0005ZM11.2873 19.1255H15.5872C15.7297 19.1255 15.8664 19.1815 15.9672 19.2811C16.068 19.3808 16.1247 19.5159 16.1247 19.6568C16.1247 19.7977 16.068 19.9328 15.9672 20.0325C15.8664 20.1321 15.7297 20.188 15.5872 20.188H11.2873C11.1447 20.188 11.008 20.1321 10.9072 20.0325C10.8064 19.9328 10.7498 19.7977 10.7498 19.6568C10.7498 19.5159 10.8064 19.3808 10.9072 19.2811C11.008 19.1815 11.1447 19.1255 11.2873 19.1255ZM2.14993 11.688V11.1568C2.15009 11.016 2.20677 10.8809 2.30753 10.7813C2.4083 10.6817 2.54492 10.6257 2.68742 10.6255H9.1373C9.2798 10.6257 9.41642 10.6817 9.51718 10.7813C9.61795 10.8809 9.67463 11.016 9.67479 11.1568V11.688H2.14993ZM2.14993 19.1255H9.67479V20.188H7.57327L2.14993 19.2134V19.1255ZM3.88938 23.9068C3.65607 24.094 3.43419 24.2947 3.22491 24.5079V23.9068H3.88938ZM8.06232 31.8755C7.49683 31.8731 6.9418 31.7247 6.4521 31.4452C5.96241 31.1657 5.55501 30.7647 5.27019 30.2818H6.6416C7.03382 30.6241 7.53906 30.8131 8.06232 30.8131C8.58557 30.8131 9.09081 30.6241 9.48304 30.2818H10.8544C10.5696 30.7647 10.1622 31.1657 9.67253 31.4452C9.18283 31.7247 8.6278 31.8731 8.06232 31.8755V31.8755ZM22.2789 28.698C22.1276 28.8621 21.9434 28.9933 21.7379 29.083C21.5325 29.1728 21.3103 29.2192 21.0857 29.2193H2.17217C2.28776 27.8324 2.85268 26.5192 3.78309 25.4747C4.71349 24.4302 5.95982 23.71 7.33711 23.421C7.47605 23.3911 7.61779 23.3759 7.75998 23.3755H11.2873V22.313H8.06232V21.2505H16.0104C15.9194 21.4526 15.7779 21.6284 15.5993 21.7617C15.4207 21.8949 15.2108 21.9812 14.9892 22.0124C14.2601 22.116 13.5931 22.4755 13.11 23.0252C12.5899 23.6171 12.3622 24.3577 12.3622 25.132C12.3618 25.8518 12.6222 26.548 13.0964 27.0943H8.59981V28.1568H19.7567C20.3261 28.1527 20.8714 27.9294 21.277 27.5344L24.6323 24.218C25.034 23.8186 25.2603 23.2787 25.262 22.7155V18.5943C25.2624 18.2648 25.3659 17.9435 25.5584 17.6744C25.7508 17.4054 26.0228 17.2018 26.337 17.0916V19.1255C26.3379 19.8786 26.6082 20.6071 27.1 21.1822C27.5917 21.7574 28.2734 22.1422 29.0244 22.2688V23.3755C28.6907 23.3755 28.3493 23.3556 28.0175 23.3985C27.012 23.497 26.0628 23.9037 25.3026 24.5616C24.5424 25.2194 24.0092 26.0957 23.7776 27.0677L22.2789 28.698ZM28.7745 27.6255H28.8018L29.4506 28.2668C29.5633 28.3787 29.6268 28.5301 29.6271 28.688C29.6271 28.8059 29.5917 28.921 29.5255 29.019C29.4593 29.117 29.3652 29.1933 29.255 29.2384C29.1449 29.2835 29.0237 29.2953 28.9068 29.2723C28.7899 29.2493 28.6825 29.1926 28.5983 29.1093L28.1036 28.6204L28.7745 27.6255ZM29.0244 31.8755C28.5587 31.8741 28.0987 31.7735 27.6759 31.5806C27.253 31.3877 26.8771 31.1071 26.5738 30.7578C26.6589 30.7168 26.7315 30.6542 26.7842 30.5765L27.2502 29.8859C27.509 30.261 27.8826 30.5443 28.3162 30.6942C28.7499 30.8441 29.2207 30.8527 29.6596 30.7187C30.0986 30.5847 30.4825 30.3152 30.7551 29.9498C31.0277 29.5843 31.1747 29.1421 31.1744 28.688C31.1751 28.3732 31.1042 28.0623 30.9668 27.7783C30.9418 27.726 30.9142 27.6754 30.8851 27.6255H32.0656C32.2372 28.1064 32.2896 28.6209 32.2186 29.1259C32.1475 29.6309 31.9549 30.1117 31.657 30.5279C31.3592 30.9442 30.9647 31.2838 30.5066 31.5183C30.0485 31.7528 29.5403 31.8753 29.0244 31.8755V31.8755Z" fill="#31352B"/>
<path d="M4.29989 13.8125H3.22491V17H4.29989V13.8125Z" fill="#31352B"/>
</svg>
